<mxfile host="Electron" agent="Mozilla/5.0 (Windows NT 10.0; Win64; x64) AppleWebKit/537.36 (KHTML, like Gecko) draw.io/28.1.2 Chrome/138.0.7204.243 Electron/37.4.0 Safari/537.36" version="28.1.2" pages="2">
  <diagram name="Home page" id="xxxgsnppWTkaf6VXlFA2">
    <mxGraphModel dx="992" dy="596" grid="1" gridSize="10" guides="1" tooltips="1" connect="1" arrows="1" fold="1" page="1" pageScale="1" pageWidth="827" pageHeight="1169" math="0" shadow="0">
      <root>
        <mxCell id="0" />
        <mxCell id="1" parent="0" />
        <mxCell id="dzrcbFCeyjkcdAgZMel1-1" value="&lt;font style=&quot;font-size: 36px;&quot;&gt;TITLE&lt;/font&gt;" style="rounded=0;whiteSpace=wrap;html=1;" vertex="1" parent="1">
          <mxGeometry x="240" y="40" width="320" height="130" as="geometry" />
        </mxCell>
        <mxCell id="dzrcbFCeyjkcdAgZMel1-6" value="&lt;font style=&quot;font-size: 18px;&quot;&gt;PROJECT IDEA&lt;/font&gt;" style="rounded=0;whiteSpace=wrap;html=1;" vertex="1" parent="1">
          <mxGeometry x="240" y="560" width="320" height="330" as="geometry" />
        </mxCell>
        <mxCell id="dzrcbFCeyjkcdAgZMel1-8" value="&lt;font style=&quot;font-size: 18px;&quot;&gt;INTRDUCCION&lt;/font&gt;" style="rounded=0;whiteSpace=wrap;html=1;" vertex="1" parent="1">
          <mxGeometry x="240" y="200" width="320" height="330" as="geometry" />
        </mxCell>
        <mxCell id="dzrcbFCeyjkcdAgZMel1-9" value="FOOTER" style="rounded=0;whiteSpace=wrap;html=1;" vertex="1" parent="1">
          <mxGeometry x="240" y="1000" width="320" height="150" as="geometry" />
        </mxCell>
        <mxCell id="dzrcbFCeyjkcdAgZMel1-12" value="ENTER BOTTON" style="ellipse;whiteSpace=wrap;html=1;" vertex="1" parent="1">
          <mxGeometry x="440" y="900" width="84" height="80" as="geometry" />
        </mxCell>
        <mxCell id="dzrcbFCeyjkcdAgZMel1-13" value="" style="shape=flexArrow;endArrow=classic;html=1;rounded=0;entryX=0.049;entryY=0.729;entryDx=0;entryDy=0;entryPerimeter=0;" edge="1" parent="1">
          <mxGeometry width="50" height="50" relative="1" as="geometry">
            <mxPoint x="360" y="980" as="sourcePoint" />
            <mxPoint x="429.116" y="948.3200000000002" as="targetPoint" />
            <Array as="points" />
          </mxGeometry>
        </mxCell>
      </root>
    </mxGraphModel>
  </diagram>
  <diagram id="SIR564RikFjgNjBiQzBT" name="Museum page">
    <mxGraphModel dx="1226" dy="736" grid="1" gridSize="10" guides="1" tooltips="1" connect="1" arrows="1" fold="1" page="1" pageScale="1" pageWidth="827" pageHeight="1169" math="0" shadow="0">
      <root>
        <mxCell id="0" />
        <mxCell id="1" parent="0" />
        <mxCell id="DCMjj7F0i-pY-GXke4Qv-1" value="&lt;font style=&quot;font-size: 18px;&quot;&gt;HISTORY&lt;/font&gt;" style="rounded=0;whiteSpace=wrap;html=1;" vertex="1" parent="1">
          <mxGeometry x="240" y="40" width="320" height="160" as="geometry" />
        </mxCell>
        <mxCell id="RBY6oiScIRuPsFhfHkZa-1" value="&lt;font style=&quot;font-size: 18px;&quot;&gt;FOOTER&lt;/font&gt;" style="rounded=0;whiteSpace=wrap;html=1;" vertex="1" parent="1">
          <mxGeometry x="240" y="930" width="320" height="200" as="geometry" />
        </mxCell>
        <mxCell id="RBY6oiScIRuPsFhfHkZa-2" value="" style="rounded=0;whiteSpace=wrap;html=1;" vertex="1" parent="1">
          <mxGeometry x="240" y="230" width="320" height="670" as="geometry" />
        </mxCell>
        <mxCell id="RBY6oiScIRuPsFhfHkZa-4" value="IMG" style="rounded=0;whiteSpace=wrap;html=1;" vertex="1" parent="1">
          <mxGeometry x="260" y="260" width="130" height="120" as="geometry" />
        </mxCell>
        <mxCell id="RBY6oiScIRuPsFhfHkZa-5" value="IMG" style="rounded=0;whiteSpace=wrap;html=1;" vertex="1" parent="1">
          <mxGeometry x="410" y="430" width="130" height="110" as="geometry" />
        </mxCell>
        <mxCell id="RBY6oiScIRuPsFhfHkZa-7" value="IMG" style="rounded=0;whiteSpace=wrap;html=1;" vertex="1" parent="1">
          <mxGeometry x="260" y="590" width="130" height="110" as="geometry" />
        </mxCell>
        <mxCell id="RBY6oiScIRuPsFhfHkZa-8" value="IMG" style="rounded=0;whiteSpace=wrap;html=1;" vertex="1" parent="1">
          <mxGeometry x="413" y="750" width="130" height="110" as="geometry" />
        </mxCell>
        <mxCell id="RBY6oiScIRuPsFhfHkZa-9" value="TEXT" style="text;html=1;align=center;verticalAlign=middle;whiteSpace=wrap;rounded=0;" vertex="1" parent="1">
          <mxGeometry x="310" y="480" width="60" height="30" as="geometry" />
        </mxCell>
        <mxCell id="RBY6oiScIRuPsFhfHkZa-10" value="TEXT" style="text;html=1;align=center;verticalAlign=middle;whiteSpace=wrap;rounded=0;" vertex="1" parent="1">
          <mxGeometry x="445" y="630" width="60" height="30" as="geometry" />
        </mxCell>
        <mxCell id="RBY6oiScIRuPsFhfHkZa-11" value="TEXT" style="text;html=1;align=center;verticalAlign=middle;whiteSpace=wrap;rounded=0;" vertex="1" parent="1">
          <mxGeometry x="445" y="320" width="60" height="30" as="geometry" />
        </mxCell>
        <mxCell id="RBY6oiScIRuPsFhfHkZa-12" value="TEXT" style="text;html=1;align=center;verticalAlign=middle;whiteSpace=wrap;rounded=0;" vertex="1" parent="1">
          <mxGeometry x="290" y="790" width="60" height="30" as="geometry" />
        </mxCell>
      </root>
    </mxGraphModel>
  </diagram>
</mxfile>
